<svg width="22" height="23" viewBox="0 0 22 23" fill="none" xmlns="http://www.w3.org/2000/svg">
<path fill-rule="evenodd" clip-rule="evenodd" d="M11.0002 4.38349L10.0143 3.30256C7.70009 0.765231 3.45671 1.64083 1.92491 4.83082C1.20577 6.33121 1.04351 8.49747 2.35668 11.2621C3.62172 13.9241 6.25355 17.1126 11.0002 20.5857C15.7468 17.1126 18.3773 13.9241 19.6437 11.2621C20.9569 8.49601 20.796 6.33121 20.0755 4.83082C18.5437 1.64083 14.3003 0.763764 11.9861 3.30109L11.0002 4.38349ZM11.0002 22.353C-10.0833 7.49281 4.50862 -4.10555 10.7582 2.02949C10.8407 2.11016 10.9218 2.19376 11.0002 2.28029C11.0778 2.19384 11.1585 2.11066 11.2422 2.03096C17.4904 -4.10849 32.0837 7.49134 11.0002 22.353Z" fill="#373737"/>
</svg>
