<svg width="22" height="22" viewBox="0 0 22 22" fill="none" xmlns="http://www.w3.org/2000/svg">
<path fill-rule="evenodd" clip-rule="evenodd" d="M2.59211 0.702897C2.83262 0.462332 3.12152 0.275664 3.43966 0.155275C3.75779 0.0348866 4.09789 -0.01647 4.43739 0.00461234C4.77688 0.0256947 5.10801 0.118734 5.40881 0.277558C5.70962 0.436382 5.97321 0.65736 6.18212 0.925833L8.64732 4.09681C9.10047 4.67762 9.26032 5.4359 9.0814 6.15018L8.32908 9.16129C8.28996 9.31753 8.29195 9.48124 8.33487 9.63649C8.37779 9.79173 8.46017 9.93322 8.57399 10.0472L11.9528 13.425C12.0668 13.5388 12.2082 13.6212 12.3635 13.6641C12.5187 13.707 12.6824 13.709 12.8386 13.6699L15.8479 12.9175C16.2008 12.8293 16.5692 12.8226 16.9252 12.8978C17.2811 12.973 17.6153 13.1282 17.9024 13.3516L21.073 15.8171C22.2125 16.703 22.3181 18.3882 21.2974 19.4076L19.8749 20.8303C18.8586 21.8467 17.3378 22.294 15.9197 21.7953C12.2922 20.5184 8.99862 18.441 6.28331 15.7174C3.55948 13.0019 1.48188 9.7079 0.204635 6.07978C-0.293977 4.66149 0.153307 3.14053 1.1696 2.12265L2.59211 0.70143V0.702897Z" fill="#EA899A"/>
</svg>
