<svg width="22" height="23" viewBox="0 0 22 23" fill="none" xmlns="http://www.w3.org/2000/svg">
<path d="M18.7782 14.5748C17.5801 13.3768 16.1541 12.4899 14.5982 11.953C16.2646 10.8052 17.3594 8.88439 17.3594 6.7124C17.3594 3.20585 14.5066 0.353027 11 0.353027C7.49345 0.353027 4.64062 3.20585 4.64062 6.7124C4.64062 8.88439 5.73543 10.8052 7.40188 11.953C5.84598 12.4899 4.41994 13.3768 3.22184 14.5748C1.14421 16.6525 0 19.4148 0 22.353H1.71875C1.71875 17.2353 5.88229 13.0718 11 13.0718C16.1177 13.0718 20.2812 17.2353 20.2812 22.353H22C22 19.4148 20.8558 16.6525 18.7782 14.5748ZM11 11.353C8.44117 11.353 6.35938 9.27128 6.35938 6.7124C6.35938 4.15353 8.44117 2.07178 11 2.07178C13.5588 2.07178 15.6406 4.15353 15.6406 6.7124C15.6406 9.27128 13.5588 11.353 11 11.353Z" fill="#373737"/>
</svg>
