<svg width="23" height="23" viewBox="0 0 23 23" fill="none" xmlns="http://www.w3.org/2000/svg">
<path d="M15.9722 11.5C15.9722 14.222 13.97 16.4286 11.5 16.4286C9.03001 16.4286 7.02778 14.222 7.02778 11.5C7.02778 8.77797 9.03001 6.57143 11.5 6.57143C13.97 6.57143 15.9722 8.77797 15.9722 11.5Z" fill="#EA899A"/>
<path d="M22.4353 3.22693C22.2105 2.61785 21.8519 2.06654 21.386 1.61402C20.9335 1.14808 20.3825 0.789492 19.7731 0.564721C19.2788 0.372753 18.5363 0.144256 17.1686 0.0820057C15.6892 0.0145374 15.2456 0 11.5002 0C7.75439 0 7.31081 0.0141647 5.83173 0.081633C4.46409 0.144256 3.7212 0.372753 3.2273 0.564721C2.61785 0.789492 2.06654 1.14808 1.61439 1.61402C1.14845 2.06654 0.789864 2.61747 0.564721 3.22693C0.372753 3.7212 0.144256 4.46409 0.0820057 5.83173C0.0145374 7.31081 0 7.75439 0 11.5002C0 15.2456 0.0145374 15.6892 0.0820057 17.1686C0.144256 18.5363 0.372753 19.2788 0.564721 19.7731C0.789864 20.3825 1.14808 20.9335 1.61402 21.386C2.06654 21.8519 2.61747 22.2105 3.22693 22.4353C3.7212 22.6276 4.46409 22.8561 5.83173 22.9184C7.31081 22.9858 7.75402 23 11.4998 23C15.246 23 15.6896 22.9858 17.1683 22.9184C18.5359 22.8561 19.2788 22.6276 19.7731 22.4353C20.9965 21.9634 21.9634 20.9965 22.4353 19.7731C22.6272 19.2788 22.8557 18.5363 22.9184 17.1686C22.9858 15.6892 23 15.2456 23 11.5002C23 7.75439 22.9858 7.31081 22.9184 5.83173C22.8561 4.46409 22.6276 3.7212 22.4353 3.22693ZM11.5002 18.7029C7.52179 18.7029 4.29673 15.4782 4.29673 11.4998C4.29673 7.52142 7.52179 4.29673 11.5002 4.29673C15.4782 4.29673 18.7033 7.52142 18.7033 11.4998C18.7033 15.4782 15.4782 18.7029 11.5002 18.7029ZM18.9881 5.6953C18.0584 5.6953 17.3047 4.94159 17.3047 4.01194C17.3047 3.0823 18.0584 2.32859 18.9881 2.32859C19.9177 2.32859 20.6714 3.0823 20.6714 4.01194C20.671 4.94159 19.9177 5.6953 18.9881 5.6953Z" fill="#EA899A"/>
</svg>
