<svg width="18" height="17" viewBox="0 0 18 17" fill="none" xmlns="http://www.w3.org/2000/svg">
<path d="M9.98502e-05 6.36368C-0.00238061 6.50726 0.0414054 6.64815 0.125652 6.76769C0.209899 6.88722 0.330627 6.97975 0.47183 7.03301L7.67227 9.75353L10.5529 16.5545C10.6085 16.686 10.7047 16.7988 10.8289 16.8782C10.9531 16.9576 11.0996 17.0001 11.2496 17H11.2616C11.4135 16.9977 11.5611 16.952 11.6848 16.8687C11.8086 16.7855 11.9027 16.6688 11.9546 16.5339L17.9543 0.951671C18.0034 0.824906 18.0132 0.687526 17.9824 0.55571C17.9516 0.423895 17.8816 0.303133 17.7805 0.207648C17.6795 0.112162 17.5517 0.0459284 17.4122 0.016748C17.2726 -0.0124325 17.1271 -0.00334484 16.9929 0.0429405L0.493579 5.70922C0.350759 5.7584 0.227113 5.84737 0.138996 5.96435C0.0508796 6.08134 0.00244514 6.22084 9.98502e-05 6.36439V6.36368Z" fill="#EA899A"/>
</svg>
