<svg width="6" height="12" viewBox="0 0 6 12" fill="none" xmlns="http://www.w3.org/2000/svg">
<path fill-rule="evenodd" clip-rule="evenodd" d="M0.125875 0.135579C0.0859742 0.178447 0.0543175 0.229372 0.0327173 0.285438C0.0111175 0.341504 -9.18565e-07 0.401609 -9.13258e-07 0.46231C-9.07951e-07 0.523011 0.0111175 0.583116 0.0327173 0.639182C0.0543175 0.695248 0.0859743 0.746173 0.125876 0.789041L4.96493 6.00012L0.125876 11.2112C0.0454226 11.2979 0.000224635 11.4154 0.000224645 11.5379C0.000224656 11.6605 0.0454226 11.778 0.125877 11.8647C0.20633 11.9513 0.315449 12 0.429228 12C0.543007 12 0.652125 11.9513 0.732579 11.8647L5.87412 6.32685C5.91403 6.28398 5.94568 6.23306 5.96728 6.17699C5.98888 6.12093 6 6.06082 6 6.00012C6 5.93942 5.98888 5.87931 5.96728 5.82325C5.94568 5.76718 5.91403 5.71626 5.87412 5.67339L0.732578 0.135579C0.692778 0.0926025 0.645496 0.0585054 0.593442 0.0352406C0.541388 0.0119759 0.485584 4.82086e-07 0.429227 4.87012e-07C0.372869 4.91939e-07 0.317066 0.0119759 0.265012 0.0352406C0.212957 0.0585054 0.165676 0.0926025 0.125875 0.135579Z" fill="#EA899A"/>
</svg>
