<svg width="75" height="57" viewBox="0 0 75 57" fill="none" xmlns="http://www.w3.org/2000/svg">
<path fill-rule="evenodd" clip-rule="evenodd" d="M12 5.18182C7.82284 5.18182 3.81677 6.81964 0.863068 9.73498C-2.09063 12.6503 -3.75 16.6044 -3.75 20.7273V51.8182H27.75V20.7273C27.75 16.6044 26.0906 12.6503 23.1369 9.73498C20.1832 6.81964 16.1772 5.18182 12 5.18182ZM12 0H54C59.5695 0 64.911 2.18376 68.8492 6.07088C72.7875 9.95799 75 15.2301 75 20.7273V51.8182C75 53.1925 74.4469 54.5105 73.4623 55.4823C72.4777 56.4541 71.1424 57 69.75 57H-3.75C-5.14239 57 -6.47774 56.4541 -7.46231 55.4823C-8.44688 54.5105 -9 53.1925 -9 51.8182V20.7273C-9 15.2301 -6.78751 9.95799 -2.84924 6.07088C1.08902 2.18376 6.43045 0 12 0ZM25.8915 5.18182C28.1284 7.12488 29.9196 9.51663 31.1455 12.1974C32.3713 14.8781 33.0035 17.7861 33 20.7273V51.8182H69.75V20.7273C69.75 16.6044 68.0906 12.6503 65.1369 9.73498C62.1832 6.81964 58.1772 5.18182 54 5.18182H25.8915Z" fill="#EFEFEF"/>
<path fill-rule="evenodd" clip-rule="evenodd" d="M52.9132 28.5H38.25V23.3182H64.5C65.1962 23.3182 65.8639 23.5912 66.3562 24.077C66.8484 24.5629 67.125 25.2219 67.125 25.9091V31.0909C67.125 31.7781 66.8484 32.4371 66.3562 32.923C65.8639 33.4089 65.1962 33.6818 64.5 33.6818H59.25C58.905 33.6824 58.5634 33.6159 58.2445 33.4861C57.9256 33.3563 57.6357 33.1657 57.3915 32.9253L52.9132 28.5Z" fill="#EFEFEF"/>
<path d="M17.25 20.7273C17.25 23.5876 14.898 20.7273 12 20.7273C9.102 20.7273 6.75 23.5876 6.75 20.7273C6.75 19.353 7.30312 18.035 8.28769 17.0632C9.27225 16.0914 10.6076 15.5455 12 15.5455C13.3924 15.5455 14.7277 16.0914 15.7123 17.0632C16.6969 18.035 17.25 19.353 17.25 20.7273Z" fill="#EFEFEF"/>
</svg>
