<svg width="24" height="21" viewBox="0 0 24 21" fill="none" xmlns="http://www.w3.org/2000/svg">
<path d="M20.5776 4.7652C20.3638 4.41063 20.0622 4.11714 19.7019 3.91305C19.3416 3.70895 18.9349 3.60114 18.5208 3.6H15.6V1.2C15.6 0.88174 15.4736 0.576516 15.2485 0.351472C15.0235 0.126428 14.7183 0 14.4 0H2.4C1.0764 0 0 1.0764 0 2.4V14.4C0 15.2952 0.4992 16.0692 1.2276 16.4808C1.3752 18.6636 3.18 20.4 5.4 20.4C7.5108 20.4 9.2448 18.8292 9.5388 16.8H13.2612C13.5552 18.8292 15.2892 20.4 17.4 20.4C19.5108 20.4 21.2448 18.8292 21.5388 16.8H21.6C22.9236 16.8 24 15.7236 24 14.4V10.8C24.0002 10.5822 23.9409 10.3685 23.8284 10.182L20.5776 4.7652ZM15.6 6H18.5208L20.6808 9.6H15.6V6ZM5.4 18C4.4076 18 3.6 17.1924 3.6 16.2C3.6 15.2076 4.4076 14.4 5.4 14.4C6.3924 14.4 7.2 15.2076 7.2 16.2C7.2 17.1924 6.3924 18 5.4 18ZM17.4 18C16.4076 18 15.6 17.1924 15.6 16.2C15.6 15.2076 16.4076 14.4 17.4 14.4C18.3924 14.4 19.2 15.2076 19.2 16.2C19.2 17.1924 18.3924 18 17.4 18Z" fill="#EA899A"/>
</svg>
