<svg width="25" height="26" viewBox="0 0 25 26" fill="none" xmlns="http://www.w3.org/2000/svg">
<path d="M12.5 23.9375C9.59919 23.9375 6.8172 22.7852 4.76602 20.734C2.71484 18.6828 1.5625 15.9008 1.5625 13C1.5625 10.0992 2.71484 7.3172 4.76602 5.26602C6.8172 3.21484 9.59919 2.0625 12.5 2.0625C15.4008 2.0625 18.1828 3.21484 20.234 5.26602C22.2852 7.3172 23.4375 10.0992 23.4375 13C23.4375 15.9008 22.2852 18.6828 20.234 20.734C18.1828 22.7852 15.4008 23.9375 12.5 23.9375ZM12.5 25.5C15.8152 25.5 18.9946 24.183 21.3388 21.8388C23.683 19.4946 25 16.3152 25 13C25 9.68479 23.683 6.50537 21.3388 4.16117C18.9946 1.81696 15.8152 0.5 12.5 0.5C9.18479 0.5 6.00537 1.81696 3.66117 4.16117C1.31696 6.50537 0 9.68479 0 13C0 16.3152 1.31696 19.4946 3.66117 21.8388C6.00537 24.183 9.18479 25.5 12.5 25.5Z" fill="#EA899A"/>
<path d="M10.9375 18.4688C10.9375 18.2615 11.0198 18.0628 11.1663 17.9163C11.3128 17.7698 11.5115 17.6875 11.7188 17.6875H13.2812C13.4885 17.6875 13.6872 17.7698 13.8337 17.9163C13.9802 18.0628 14.0625 18.2615 14.0625 18.4688C14.0625 18.676 13.9802 18.8747 13.8337 19.0212C13.6872 19.1677 13.4885 19.25 13.2812 19.25H11.7188C11.5115 19.25 11.3128 19.1677 11.1663 19.0212C11.0198 18.8747 10.9375 18.676 10.9375 18.4688ZM7.8125 13.7812C7.8125 13.574 7.89481 13.3753 8.04132 13.2288C8.18784 13.0823 8.38655 13 8.59375 13H16.4062C16.6135 13 16.8122 13.0823 16.9587 13.2288C17.1052 13.3753 17.1875 13.574 17.1875 13.7812C17.1875 13.9885 17.1052 14.1872 16.9587 14.3337C16.8122 14.4802 16.6135 14.5625 16.4062 14.5625H8.59375C8.38655 14.5625 8.18784 14.4802 8.04132 14.3337C7.89481 14.1872 7.8125 13.9885 7.8125 13.7812ZM4.6875 9.09375C4.6875 8.88655 4.76981 8.68784 4.91632 8.54132C5.06284 8.39481 5.26155 8.3125 5.46875 8.3125H19.5312C19.7385 8.3125 19.9372 8.39481 20.0837 8.54132C20.2302 8.68784 20.3125 8.88655 20.3125 9.09375C20.3125 9.30095 20.2302 9.49966 20.0837 9.64618C19.9372 9.79269 19.7385 9.875 19.5312 9.875H5.46875C5.26155 9.875 5.06284 9.79269 4.91632 9.64618C4.76981 9.49966 4.6875 9.30095 4.6875 9.09375Z" fill="#EA899A"/>
</svg>
