<svg width="19" height="19" viewBox="0 0 19 19" fill="none" xmlns="http://www.w3.org/2000/svg">
<path fill-rule="evenodd" clip-rule="evenodd" d="M12.3997 12.4001C12.51 12.2897 12.641 12.2021 12.7851 12.1423C12.9293 12.0826 13.0838 12.0518 13.2399 12.0518C13.3959 12.0518 13.5504 12.0826 13.6946 12.1423C13.8388 12.2021 13.9697 12.2897 14.08 12.4001L18.6518 16.9721C18.8746 17.1947 18.9999 17.4968 19 17.8118C19.0001 18.1268 18.8751 18.429 18.6524 18.6518C18.4298 18.8746 18.1277 18.9999 17.8127 19C17.4977 19.0001 17.1955 18.8751 16.9727 18.6524L12.4009 14.0805C12.2905 13.9702 12.2029 13.8392 12.1431 13.695C12.0834 13.5509 12.0526 13.3963 12.0526 13.2403C12.0526 13.0842 12.0834 12.9297 12.1431 12.7855C12.2029 12.6414 12.2905 12.5104 12.4009 12.4001H12.3997Z" fill="#EA899A"/>
<path fill-rule="evenodd" clip-rule="evenodd" d="M7.71866 14.2503C8.57634 14.2503 9.42563 14.0813 10.218 13.7531C11.0104 13.4249 11.7304 12.9438 12.3369 12.3373C12.9434 11.7308 13.4244 11.0108 13.7527 10.2183C14.0809 9.42592 14.2498 8.57661 14.2498 7.71889C14.2498 6.86118 14.0809 6.01187 13.7527 5.21945C13.4244 4.42702 12.9434 3.70701 12.3369 3.10052C11.7304 2.49402 11.0104 2.01293 10.218 1.68469C9.42563 1.35646 8.57634 1.18752 7.71866 1.18752C5.98648 1.18752 4.32525 1.87565 3.10042 3.10052C1.87559 4.32539 1.18749 5.98667 1.18749 7.71889C1.18749 9.45112 1.87559 11.1124 3.10042 12.3373C4.32525 13.5621 5.98648 14.2503 7.71866 14.2503ZM15.4373 7.71889C15.4373 9.76607 14.6241 11.7294 13.1766 13.177C11.729 14.6245 9.76577 15.4378 7.71866 15.4378C5.67154 15.4378 3.70827 14.6245 2.26074 13.177C0.813213 11.7294 0 9.76607 0 7.71889C0 5.67172 0.813213 3.70839 2.26074 2.26081C3.70827 0.813238 5.67154 0 7.71866 0C9.76577 0 11.729 0.813238 13.1766 2.26081C14.6241 3.70839 15.4373 5.67172 15.4373 7.71889Z" fill="#EA899A"/>
</svg>
