<svg width="115" height="141" viewBox="0 0 115 141" fill="none" xmlns="http://www.w3.org/2000/svg">
<circle cx="58" cy="58" r="52" fill="#FFB8B2"/>
<circle cx="58" cy="58" r="52" fill="url(#paint0_linear_519_1090)"/>
<g filter="url(#filter0_d_519_1090)">
<path d="M82.9373 44.6717C82.8662 43.1722 82.8663 41.7408 82.8663 40.3094C82.8663 39.1507 81.9427 38.2646 80.735 38.2646C71.8546 38.2646 65.1055 35.8108 59.4931 30.5623C58.6405 29.8126 57.3618 29.8126 56.5092 30.5623C50.8968 35.8108 44.1477 38.2646 35.2673 38.2646C34.0596 38.2646 33.136 39.1507 33.136 40.3094C33.136 41.7408 33.136 43.1722 33.065 44.6717C32.7808 58.9857 32.3546 78.6161 57.2907 86.8637L58.0011 87L58.7116 86.8637C83.5767 78.6161 83.2215 59.0538 82.9373 44.6717ZM56.2961 64.5067C55.8699 64.8475 55.3726 65.052 54.8042 65.052H54.7332C54.1648 65.052 53.5965 64.7794 53.2413 64.3704L46.6342 57.3498L49.8312 54.6233L55.0173 60.1444L66.5263 49.6475L69.4391 52.6466L56.2961 64.5067Z" fill="white"/>
</g>
<defs>
<filter id="filter0_d_519_1090" x="1.536" y="20.4704" width="112.928" height="119.928" filterUnits="userSpaceOnUse" color-interpolation-filters="sRGB">
<feFlood flood-opacity="0" result="BackgroundImageFix"/>
<feColorMatrix in="SourceAlpha" type="matrix" values="0 0 0 0 0 0 0 0 0 0 0 0 0 0 0 0 0 0 127 0" result="hardAlpha"/>
<feOffset dy="21.9344"/>
<feGaussianBlur stdDeviation="15.732"/>
<feColorMatrix type="matrix" values="0 0 0 0 0.870833 0 0 0 0 0.317129 0 0 0 0 0.41417 0 0 0 1 0"/>
<feBlend mode="normal" in2="BackgroundImageFix" result="effect1_dropShadow_519_1090"/>
<feBlend mode="normal" in="SourceGraphic" in2="effect1_dropShadow_519_1090" result="shape"/>
</filter>
<linearGradient id="paint0_linear_519_1090" x1="16" y1="28" x2="78" y2="104.5" gradientUnits="userSpaceOnUse">
<stop stop-color="#FF94A7"/>
<stop offset="1" stop-color="#EF5B75"/>
</linearGradient>
</defs>
</svg>
