<svg width="91" height="84" viewBox="0 0 91 84" fill="none" xmlns="http://www.w3.org/2000/svg">
<path d="M8.70956 64.5613H6.13761L2.26507 59.0227V64.5613H0V53.6337H2.26507V58.9256L6.09377 53.6337H8.50497L4.61051 58.8807L8.70956 64.5613Z" fill="#373737"/>
<path d="M16.7431 64.5613L15.9686 61.9602H12.0741L11.2996 64.5613H8.8592L12.6294 53.5889H15.3987L19.1835 64.5613H16.7431ZM15.4279 60.0168C14.7119 57.6599 14.3075 56.327 14.215 56.018C14.1273 55.7091 14.064 55.4649 14.025 55.2856C13.8643 55.9234 13.404 57.5005 12.6441 60.0168H15.4279Z" fill="#373737"/>
<path d="M29.1387 64.5613H26.881V55.5621H24.2652L24.1483 56.5637C23.8463 59.1099 23.5784 60.8988 23.3445 61.9303C23.1156 62.9568 22.7795 63.6793 22.3362 64.0978C21.893 64.5164 21.2938 64.7207 20.5388 64.7107C20.1296 64.7107 19.7691 64.6559 19.4574 64.5463V62.6478C19.7399 62.7475 20.0054 62.7973 20.2538 62.7973C20.512 62.7973 20.7166 62.6777 20.8676 62.4385C21.0186 62.1944 21.1598 61.7459 21.2914 61.0931C21.4278 60.4354 21.6056 59.3616 21.8248 57.8717C22.0488 56.3768 22.2388 54.9642 22.3947 53.6337H29.1387V64.5613Z" fill="#373737"/>
<path d="M31.9845 53.6337H34.0231V58.9106L33.9939 60.3233L33.9208 61.9303H33.9647L38.8967 53.6337H41.6074V64.5613H39.5908V59.3142C39.5908 58.6116 39.6346 57.5702 39.7223 56.19H39.6639L34.7099 64.5613H31.9845V53.6337Z" fill="#373737"/>
<path d="M53.2066 64.5613H50.9489V59.8449H46.7183V64.5613H44.4532V53.6337H46.7183V57.9165H50.9489V53.6337H53.2066V64.5613Z" fill="#373737"/>
<path d="M56.0598 53.6337H58.0983V58.9106L58.0691 60.3233L57.996 61.9303H58.0399L62.9719 53.6337H65.6826V64.5613H63.666V59.3142C63.666 58.6116 63.7098 57.5702 63.7975 56.19H63.7391L58.7851 64.5613H56.0598V53.6337Z" fill="#373737"/>
<path d="M77.2819 64.5613H75.0241V59.8449H70.7935V64.5613H68.5285V53.6337H70.7935V57.9165H75.0241V53.6337H77.2819V64.5613Z" fill="#373737"/>
<path d="M87.4416 61.1455C87.4416 62.2816 87.0714 63.1361 86.331 63.7092C85.5955 64.2772 84.5044 64.5613 83.0576 64.5613H80.135V53.6337H82.4V57.8268H83.1307C84.4995 57.8268 85.559 58.1183 86.3091 58.7013C87.0641 59.2794 87.4416 60.0941 87.4416 61.1455ZM82.4 62.6628H82.9919C83.7372 62.6628 84.2827 62.5382 84.6286 62.289C84.9744 62.0349 85.1473 61.6537 85.1473 61.1455C85.1473 60.6372 84.9793 60.2735 84.6432 60.0542C84.312 59.835 83.7274 59.7253 82.8896 59.7253H82.4V62.6628ZM91 64.5613H88.7422V53.6337H91V64.5613Z" fill="#373737"/>
<path d="M27.9331 82.302H26.8325V79.7112H21.5962V82.302H20.5024V78.7336H21.0903C21.701 77.9042 22.1795 76.9312 22.5259 75.8147C22.8722 74.6982 23.0522 73.4996 23.0659 72.219H26.8599V78.7336H27.9331V82.302ZM25.7661 78.7336V73.1145H24.0845C24.0252 74.1262 23.8293 75.1516 23.4966 76.1907C23.1685 77.2252 22.7583 78.0728 22.2661 78.7336H25.7661ZM32.7421 79.8479C31.6346 79.8479 30.7596 79.5107 30.1171 78.8362C29.479 78.1617 29.16 77.2252 29.16 76.0266C29.16 74.8189 29.4562 73.8596 30.0487 73.1487C30.6457 72.4377 31.4455 72.0823 32.4481 72.0823C33.3869 72.0823 34.1297 72.3922 34.6766 73.012C35.2235 73.6272 35.4969 74.4407 35.4969 75.4524V76.1702H30.3358C30.3586 77.0497 30.5796 77.7174 30.9989 78.1731C31.4227 78.6288 32.0174 78.8567 32.7831 78.8567C33.5897 78.8567 34.3872 78.6881 35.1756 78.3508V79.3625C34.7746 79.5357 34.3941 79.6588 34.034 79.7317C33.6786 79.8092 33.2479 79.8479 32.7421 79.8479ZM32.4344 73.0325C31.8329 73.0325 31.3521 73.2284 30.9921 73.6204C30.6366 74.0123 30.4269 74.5546 30.3631 75.2473H34.2801C34.2801 74.5318 34.1206 73.9849 33.8016 73.6067C33.4826 73.2239 33.0269 73.0325 32.4344 73.0325ZM43.1633 79.7112H42.0149V73.1897H39.7658C39.6428 74.8121 39.4719 76.0995 39.2531 77.052C39.0344 78.0045 38.7496 78.7017 38.3987 79.1438C38.0523 79.5859 37.6102 79.8069 37.0725 79.8069C36.8264 79.8069 36.6304 79.7795 36.4846 79.7249V78.884C36.5849 78.9114 36.6988 78.925 36.8264 78.925C37.3505 78.925 37.7675 78.3713 38.0774 77.2639C38.3873 76.1565 38.622 74.4749 38.7815 72.219H43.1633V79.7112ZM50.3238 79.7112L50.0982 78.6448H50.0435C49.6698 79.1142 49.2961 79.4332 48.9224 79.6018C48.5533 79.7659 48.0907 79.8479 47.5347 79.8479C46.7919 79.8479 46.2086 79.6565 45.7847 79.2737C45.3655 78.8909 45.1558 78.3463 45.1558 77.6399C45.1558 76.1269 46.3658 75.3339 48.7857 75.261L50.0572 75.22V74.7551C50.0572 74.1672 49.9296 73.7343 49.6744 73.4563C49.4237 73.1737 49.0204 73.0325 48.4644 73.0325C47.8401 73.0325 47.1337 73.2239 46.3453 73.6067L45.9967 72.7385C46.3658 72.538 46.7691 72.3808 47.2066 72.2668C47.6487 72.1529 48.0907 72.0959 48.5328 72.0959C49.426 72.0959 50.0868 72.2942 50.5152 72.6907C50.9482 73.0872 51.1646 73.7229 51.1646 74.5979V79.7112H50.3238ZM47.7603 78.9114C48.4667 78.9114 49.0204 78.7177 49.4215 78.3303C49.8271 77.943 50.0299 77.4006 50.0299 76.7034V76.0266L48.8951 76.0745C47.9928 76.1064 47.3411 76.2476 46.94 76.4983C46.5435 76.7444 46.3453 77.1295 46.3453 77.6536C46.3453 78.0637 46.4683 78.3759 46.7144 78.5901C46.9651 78.8043 47.3137 78.9114 47.7603 78.9114ZM63.2949 75.9583C63.2949 77.1842 63.0009 78.1389 62.413 78.8225C61.8297 79.5061 61.0276 79.8479 60.0068 79.8479C59.0361 79.8479 58.2659 79.5448 57.6962 78.9387C57.1266 78.328 56.8098 77.4599 56.746 76.3342H54.7841V79.7112H53.6494V72.219H54.7841V75.3567H56.7597C56.8509 74.3176 57.1835 73.5133 57.7578 72.9436C58.332 72.3694 59.0908 72.0823 60.0341 72.0823C61.0367 72.0823 61.8297 72.4309 62.413 73.1282C63.0009 73.8209 63.2949 74.7642 63.2949 75.9583ZM57.9218 75.9583C57.9218 76.9198 58.0882 77.6513 58.4208 78.1526C58.7535 78.6493 59.2867 78.8977 60.0205 78.8977C60.7405 78.8977 61.2691 78.6562 61.6064 78.1731C61.9482 77.6855 62.1191 76.9472 62.1191 75.9583C62.1191 75.0012 61.9527 74.2766 61.6201 73.7844C61.2874 73.2922 60.7542 73.0461 60.0205 73.0461C59.2867 73.0461 58.7535 73.2922 58.4208 73.7844C58.0882 74.2766 57.9218 75.0012 57.9218 75.9583ZM70.4759 73.1897H68.0423V79.7112H66.9075V73.1897H64.5013V72.219H70.4759V73.1897Z" fill="#FFA1B1"/>
<path d="M19.2109 1.6192e-07H23.3257V47.5222H19.2109V1.6192e-07Z" fill="#FFA1B1"/>
<path d="M26.5261 1.6192e-07H30.6409V47.5222H26.5261V1.6192e-07Z" fill="#FFA1B1"/>
<path d="M33.8413 1.6192e-07H37.9561V47.5222H33.8413V1.6192e-07Z" fill="#FFA1B1"/>
<path d="M37.9561 10.4549C37.9561 10.4549 45.6001 11.5342 50.0718 13.5438C54.4586 15.5153 56.909 16.9965 60.3588 20.4346C64.5054 24.5672 66.0871 27.7814 68.3597 33.2656C70.5439 38.5363 71.7887 47.5222 71.7887 47.5222H67.6739C67.6739 47.5222 66.3346 39.4164 64.2449 34.6912C62.3317 30.3649 60.9991 27.9261 57.8442 24.4739C55.482 21.8892 53.967 20.5348 50.9862 18.7713C46.3929 16.0538 37.9561 14.9695 37.9561 14.9695V10.4549Z" fill="#FFA1B1"/>
<path d="M71.7717 1.6192e-07C71.7717 1.6192e-07 70.9702 7.97501 69.1759 12.6828C67.4156 17.3013 66.0671 19.893 62.8676 23.5832C59.0218 28.019 55.9799 29.7616 50.7765 32.2922C45.7755 34.7244 37.1731 36.2953 37.1731 36.2953L37.0459 32.0204C37.0459 32.0204 44.7991 30.3784 49.2783 28.0613C53.3794 25.9399 55.6834 24.4801 58.9056 21.0956C61.318 18.5616 62.5737 16.9457 64.1774 13.7944C66.6486 8.93828 67.4304 0.139541 67.4304 0.139541L71.7717 1.6192e-07Z" fill="#FFA1B1"/>
<path d="M34.7557 17.108C34.7557 17.108 41.4701 17.9936 45.3979 19.6425C49.2511 21.2602 51.4036 22.4755 54.4337 25.2964C58.0761 28.6874 59.4654 31.3246 61.4616 35.8244C63.3802 40.1492 64.4735 47.5222 64.4735 47.5222H60.8592C60.8592 47.5222 59.6828 40.8713 57.8473 36.9942C56.1667 33.4445 54.9962 31.4434 52.225 28.6108C50.1501 26.49 48.8193 25.3787 46.2011 23.9317C42.1664 21.7019 34.7557 20.8123 34.7557 20.8123V17.108Z" fill="#FFA1B1"/>
<path d="M64.0163 1.6192e-07C64.0163 1.6192e-07 63.1644 6.54962 61.578 10.381C60.0217 14.1397 58.8525 16.2393 56.1385 19.1951C52.8762 22.7481 50.3389 24.1033 46.0098 26.0505C41.8491 27.922 34.7557 28.9886 34.7557 28.9886V25.4629C34.7557 25.4629 41.1543 24.3154 44.8844 22.5249C48.2995 20.8856 50.2247 19.7438 52.9498 17.0406C54.9902 15.0166 56.0594 13.7185 57.4515 11.1645C59.5966 7.22885 60.4525 0 60.4525 0L64.0163 1.6192e-07Z" fill="#FFA1B1"/>
<path d="M36.1273 26.1372C36.1273 26.1372 40.7757 26.7599 43.495 27.9193C46.1626 29.0567 47.6527 29.9112 49.7505 31.8947C52.2721 34.279 53.234 36.1333 54.616 39.2972C55.9442 42.338 56.7012 47.5222 56.7012 47.5222H53.2722C53.2722 47.5222 52.7142 42.8824 51.4434 40.1563C50.2799 37.6603 49.4758 36.4453 47.5572 34.4536C46.1208 32.9624 45.3076 32.6197 43.495 31.6023C40.7017 30.0345 36.1273 29.7014 36.1273 29.7014V26.1372Z" fill="#FFA1B1"/>
<path d="M56.7012 1.6192e-07C56.7012 1.6192e-07 56.1021 4.83169 54.9867 7.65814C53.8924 10.4309 53.0703 11.9798 51.162 14.1603C48.8682 16.7814 47.0842 17.7811 44.0403 19.2176C41.1148 20.5982 36.1273 21.385 36.1273 21.385L36.1273 17.8208C36.1273 17.8208 40.5911 17.2408 43.2138 15.9199C45.6151 14.7106 46.7841 13.8747 48.7002 11.8806C50.1348 10.3875 50.4646 9.54222 51.4434 7.65814C52.9517 4.75478 53.2722 6.12531e-09 53.2722 6.12531e-09L56.7012 1.6192e-07Z" fill="#FFA1B1"/>
</svg>
