<svg width="17" height="23" viewBox="0 0 17 23" fill="none" xmlns="http://www.w3.org/2000/svg">
<path d="M2.86957 0.504637L4.17612 0.109033C5.40254 -0.261272 6.71031 0.337885 7.23609 1.5086L8.27916 3.84083C8.7333 4.85629 8.48194 6.05115 7.65502 6.79406L5.35519 8.86178C5.49604 10.0992 5.93561 11.3171 6.67146 12.5154C7.37062 13.6748 8.30833 14.6896 9.42907 15.4997L12.1915 14.6257C13.2395 14.2956 14.3797 14.6763 15.0208 15.5698L16.518 17.6513C17.2648 18.691 17.1312 20.1239 16.2047 21.0048L15.2114 21.9489C14.223 22.8885 12.8108 23.2301 11.5055 22.8436C8.42244 21.9328 5.58833 19.2292 3.00192 14.7326C0.411876 10.2292 -0.502472 6.40651 0.260092 3.26927C0.580661 1.94905 1.57272 0.896792 2.86957 0.504637Z" fill="#EA899A"/>
</svg>
