<svg width="21" height="21" viewBox="0 0 21 21" fill="none" xmlns="http://www.w3.org/2000/svg">
<path d="M20.628 11.2501C20.5257 11.1305 20.3987 11.0342 20.2559 10.968C20.113 10.9018 19.9575 10.8672 19.8 10.8666H19.7565C19.4844 10.8699 19.2225 10.9707 19.0184 11.1507C18.8143 11.3307 18.6816 11.5779 18.6442 11.8475C18.4036 13.4167 17.7081 14.881 16.6438 16.0591C15.5795 17.2372 14.1932 18.0775 12.6562 18.476C11.0141 18.9144 9.2767 18.8365 7.68037 18.2528C6.08405 17.6691 4.70622 16.6081 3.73425 15.2138C3.69512 15.1576 3.67215 15.0917 3.66785 15.0233C3.66354 14.9549 3.67807 14.8866 3.70984 14.8259C3.74161 14.7652 3.78942 14.7143 3.84807 14.6789C3.90672 14.6434 3.97396 14.6247 4.0425 14.6248H6C6.19891 14.6248 6.38968 14.5458 6.53033 14.4051C6.67098 14.2645 6.75 14.0738 6.75 13.8749C6.75 13.676 6.67098 13.4852 6.53033 13.3446C6.38968 13.204 6.19891 13.1249 6 13.1249H0V19.1243C0 19.3232 0.0790176 19.5139 0.21967 19.6546C0.360322 19.7952 0.551088 19.8742 0.75 19.8742C0.948912 19.8742 1.13968 19.7952 1.28033 19.6546C1.42098 19.5139 1.5 19.3232 1.5 19.1243V17.122C1.5001 17.0437 1.5247 16.9674 1.57035 16.9038C1.61601 16.8402 1.68042 16.7925 1.75457 16.7674C1.82872 16.7422 1.90888 16.7409 1.98381 16.7636C2.05874 16.7864 2.12468 16.832 2.17238 16.894C3.42357 18.5238 5.1255 19.7507 7.06729 20.4226C9.00909 21.0946 11.1054 21.1821 13.0964 20.6743C15.0875 20.1665 16.8858 19.0857 18.2685 17.5659C19.6511 16.0461 20.5575 14.154 20.8751 12.1242C20.8994 11.9693 20.8899 11.811 20.8472 11.6601C20.8045 11.5093 20.7298 11.3694 20.628 11.2501Z" fill="white"/>
<path d="M15 7.8755H21V1.87615C21 1.67726 20.921 1.48651 20.7803 1.34587C20.6397 1.20524 20.4489 1.12623 20.25 1.12623C20.0511 1.12623 19.8603 1.20524 19.7197 1.34587C19.579 1.48651 19.5 1.67726 19.5 1.87615V3.87843C19.4999 3.95672 19.4753 4.03302 19.4296 4.09662C19.384 4.16022 19.3196 4.20793 19.2454 4.23307C19.1713 4.25822 19.0911 4.25952 19.0162 4.2368C18.9413 4.21409 18.8753 4.16849 18.8276 4.10641C17.5792 2.48008 15.8819 1.25481 13.9451 0.581802C12.0084 -0.0912032 9.91691 -0.182491 7.92886 0.319202C5.94081 0.820896 4.14317 1.89362 2.75776 3.40499C1.37236 4.91636 0.459816 6.80024 0.13275 8.82415C0.107624 8.98496 0.117627 9.14931 0.162072 9.30589C0.206517 9.46246 0.28435 9.60756 0.390217 9.73119C0.496085 9.85483 0.627476 9.95407 0.775356 10.0221C0.923236 10.0901 1.0841 10.1253 1.24688 10.1253C1.51749 10.1225 1.77822 10.0233 1.98214 9.84535C2.18605 9.66744 2.31974 9.42258 2.35913 9.15487C2.62626 7.53603 3.37028 6.03366 4.49601 4.83993C5.62174 3.64619 7.07801 2.81537 8.67856 2.45371C10.2791 2.09206 11.9512 2.21601 13.4809 2.80973C15.0106 3.40344 16.3284 4.43993 17.2658 5.7866C17.3049 5.84286 17.3279 5.90877 17.3322 5.97716C17.3365 6.04556 17.3219 6.11382 17.2902 6.17454C17.2584 6.23526 17.2106 6.28611 17.1519 6.32157C17.0933 6.35703 17.026 6.37574 16.9575 6.37567H15C14.8011 6.37567 14.6103 6.45468 14.4697 6.59531C14.329 6.73595 14.25 6.92669 14.25 7.12559C14.25 7.32448 14.329 7.51522 14.4697 7.65586C14.6103 7.7965 14.8011 7.8755 15 7.8755Z" fill="white"/>
</svg>
