<svg width="123" height="135" viewBox="0 0 123 135" fill="none" xmlns="http://www.w3.org/2000/svg">
<path d="M113 52C113 80.7188 89.7188 104 61 104C32.2812 104 9 80.7188 9 52C9 23.2812 32.2812 0 61 0C89.7188 0 113 23.2812 113 52Z" fill="#FFB8B2"/>
<path d="M113 52C113 80.7188 89.7188 104 61 104C32.2812 104 9 80.7188 9 52C9 23.2812 32.2812 0 61 0C89.7188 0 113 23.2812 113 52Z" fill="url(#paint0_linear_606_1092)"/>
<g filter="url(#filter0_d_606_1092)">
<path d="M90.8147 48.2249C90.7215 47.3957 89.7542 46.7718 88.9178 46.7718C86.2147 46.7718 83.8157 45.1853 82.8096 42.7297C81.7826 40.2152 82.4453 37.2832 84.4592 35.4356C85.0935 34.8556 85.1708 33.8845 84.6391 33.2104C83.2551 31.4534 81.6828 29.8661 79.9656 28.4906C79.2938 27.9517 78.3066 28.0267 77.7236 28.672C75.9653 30.6193 72.8067 31.3429 70.3658 30.3246C67.8268 29.2563 66.2241 26.6825 66.3816 23.92C66.4334 23.0517 65.7985 22.2972 64.9333 22.1964C62.7295 21.9413 60.5063 21.9339 58.2961 22.1791C57.4419 22.2735 56.8075 23.0101 56.8359 23.8674C56.9315 26.6029 55.3108 29.1313 52.7962 30.1613C50.3847 31.1465 47.2481 30.4282 45.4933 28.498C44.9134 27.8621 43.9435 27.784 43.2671 28.3114C41.4994 29.6987 39.8916 31.2871 38.4949 33.0298C37.9506 33.7072 38.031 34.689 38.6707 35.271C40.7245 37.1308 41.3866 40.0881 40.3203 42.632C39.3022 45.0572 36.7841 46.6195 33.9015 46.6195C32.9661 46.5894 32.3004 47.2179 32.1971 48.0685C31.9378 50.284 31.935 52.5427 32.1846 54.7763C32.2777 55.6091 33.2736 56.2276 34.1192 56.2276C36.6886 56.1623 39.154 57.7519 40.1896 60.2695C41.2202 62.784 40.5568 65.7147 38.5395 67.5649C37.9085 68.1448 37.8279 69.1136 38.3607 69.787C39.7306 71.533 41.3044 73.1214 43.0267 74.5086C43.7029 75.0531 44.6863 74.9768 45.2724 74.3308C47.0376 72.3789 50.1956 71.6565 52.6265 72.6769C55.173 73.7424 56.7749 76.3159 56.6185 79.0792C56.5672 79.9475 57.2035 80.7043 58.0657 80.8028C59.1935 80.9347 60.3272 81 61.4644 81C62.5437 81 63.6233 80.9411 64.7029 80.8209C65.5582 80.7265 66.1915 79.9891 66.1626 79.1315C66.0639 76.3973 67.6882 73.8687 70.1997 72.8407C72.6273 71.8492 75.7499 72.5748 77.5057 74.5023C78.0887 75.1368 79.0527 75.2139 79.7319 74.6885C81.4966 73.3048 83.1013 71.7172 84.5041 69.9699C85.0489 69.2938 84.9716 68.3107 84.3283 67.7277C82.2751 65.8691 81.6094 62.9106 82.6757 60.3693C83.6779 57.9767 86.1024 56.3702 88.7101 56.3702L89.075 56.3799C89.9216 56.4486 90.6996 55.7966 90.8019 54.933C91.0624 52.7154 91.0652 50.4593 90.8147 48.2249ZM61.4999 68.5071C52.1068 68.5071 44.4926 60.8931 44.4926 51.5004C44.4926 42.1076 52.107 34.4936 61.4999 34.4936C70.8927 34.4936 78.5072 42.1076 78.5072 51.5004C78.5072 54.6885 77.6281 57.6705 76.1015 60.2205L68.6545 52.7733C69.1936 51.5021 69.4784 50.1241 69.4781 48.7018C69.4781 45.9168 68.3935 43.2987 66.4239 41.3297C64.4549 39.3606 61.8367 38.2762 59.0522 38.2762C58.1229 38.2762 57.1979 38.3997 56.3031 38.6434C55.9112 38.7503 55.5907 39.0733 55.4863 39.466C55.3797 39.8676 55.4999 40.2792 55.8137 40.5933C55.8137 40.5933 59.4903 44.2981 60.7204 45.528C60.8492 45.6568 60.849 45.9643 60.8309 46.075L60.8194 46.1559C60.6954 47.5082 60.4563 49.1315 60.2591 49.7554C60.2325 49.7816 60.2075 49.8038 60.1805 49.8309C60.1521 49.8592 60.1261 49.8865 60.0988 49.9146C59.4668 50.1174 57.8185 50.3593 56.4447 50.4823L56.445 50.4749L56.3832 50.4905C56.3722 50.4917 56.3518 50.4933 56.3248 50.4933C56.1763 50.4933 55.9579 50.4517 55.7594 50.2534C54.479 48.9731 50.9466 45.466 50.9466 45.466C50.6297 45.1501 50.3046 45.0837 50.088 45.0837C49.583 45.0837 49.1309 45.4486 48.9885 45.9719C48.0161 49.5704 49.0469 53.4411 51.6794 56.0737C53.6489 58.043 56.2674 59.1274 59.0524 59.1274C60.4747 59.1274 61.8528 58.8429 63.1237 58.3038L70.6516 65.8316C68.0087 67.5228 64.8703 68.5071 61.4999 68.5071Z" fill="white"/>
</g>
<defs>
<filter id="filter0_d_606_1092" x="0.535999" y="12.4704" width="121.928" height="121.928" filterUnits="userSpaceOnUse" color-interpolation-filters="sRGB">
<feFlood flood-opacity="0" result="BackgroundImageFix"/>
<feColorMatrix in="SourceAlpha" type="matrix" values="0 0 0 0 0 0 0 0 0 0 0 0 0 0 0 0 0 0 127 0" result="hardAlpha"/>
<feOffset dy="21.9344"/>
<feGaussianBlur stdDeviation="15.732"/>
<feColorMatrix type="matrix" values="0 0 0 0 0.870833 0 0 0 0 0.317129 0 0 0 0 0.41417 0 0 0 1 0"/>
<feBlend mode="normal" in2="BackgroundImageFix" result="effect1_dropShadow_606_1092"/>
<feBlend mode="normal" in="SourceGraphic" in2="effect1_dropShadow_606_1092" result="shape"/>
</filter>
<linearGradient id="paint0_linear_606_1092" x1="19" y1="22" x2="81" y2="98.5" gradientUnits="userSpaceOnUse">
<stop stop-color="#FF94A7"/>
<stop offset="1" stop-color="#EF5B75"/>
</linearGradient>
</defs>
</svg>
