<svg width="14" height="8" viewBox="0 0 14 8" fill="none" xmlns="http://www.w3.org/2000/svg">
<path fill-rule="evenodd" clip-rule="evenodd" d="M13.8418 0.167835C13.7918 0.114634 13.7324 0.0724244 13.667 0.0436244C13.6016 0.0148244 13.5315 -5.58732e-09 13.4606 -6.43181e-09C13.3898 -7.27631e-09 13.3197 0.0148244 13.2543 0.0436244C13.1889 0.0724244 13.1295 0.114634 13.0795 0.167835L6.99986 6.6199L0.920264 0.167835C0.819167 0.0605634 0.682051 0.000299295 0.539078 0.000299293C0.396106 0.000299292 0.258988 0.0605634 0.157892 0.167835C0.0567952 0.275107 9.03835e-08 0.420598 8.85744e-08 0.572303C8.67653e-08 0.724008 0.0567952 0.8695 0.157892 0.976772L6.61867 7.83216C6.66868 7.88537 6.7281 7.92758 6.79351 7.95638C6.85892 7.98518 6.92904 8 6.99986 8C7.07068 8 7.1408 7.98518 7.20621 7.95638C7.27162 7.92758 7.33103 7.88537 7.38104 7.83216L13.8418 0.976772C13.892 0.923705 13.9317 0.860662 13.9589 0.791257C13.986 0.721851 14 0.647447 14 0.572303C14 0.49716 13.986 0.422755 13.9589 0.35335C13.9317 0.283945 13.892 0.220902 13.8418 0.167835Z" fill="#EA899A"/>
</svg>
