<svg width="67" height="64" viewBox="0 0 67 64" fill="none" xmlns="http://www.w3.org/2000/svg">
<path d="M56.1624 14.9496C55.4853 13.8373 54.5302 12.9165 53.3894 12.2762C52.2485 11.6359 50.9604 11.2977 49.6492 11.2941H40.4V3.76471C40.4 2.76624 39.9996 1.80868 39.287 1.10266C38.5744 0.396638 37.6078 0 36.6 0H-1.4C-5.5914 0 -9 3.37694 -9 7.52941V45.1765C-9 47.9849 -7.4192 50.4132 -5.1126 51.7045C-4.6452 58.5525 1.07 64 8.1 64C14.7842 64 20.2752 59.072 21.2062 52.7059H32.9938C33.9248 59.072 39.4158 64 46.1 64C52.7842 64 58.2752 59.072 59.2062 52.7059H59.4C63.5914 52.7059 67 49.3289 67 45.1765V33.8824C67.0007 33.1991 66.8128 32.5286 66.4566 31.9435L56.1624 14.9496ZM40.4 18.8235H49.6492L56.4892 30.1176H40.4V18.8235ZM8.1 56.4706C4.9574 56.4706 2.4 53.9369 2.4 50.8235C2.4 47.7101 4.9574 45.1765 8.1 45.1765C11.2426 45.1765 13.8 47.7101 13.8 50.8235C13.8 53.9369 11.2426 56.4706 8.1 56.4706ZM46.1 56.4706C42.9574 56.4706 40.4 53.9369 40.4 50.8235C40.4 47.7101 42.9574 45.1765 46.1 45.1765C49.2426 45.1765 51.8 47.7101 51.8 50.8235C51.8 53.9369 49.2426 56.4706 46.1 56.4706Z" fill="#EFEFEF"/>
</svg>
