<svg width="26" height="23" viewBox="0 0 26 23" fill="none" xmlns="http://www.w3.org/2000/svg">
<path d="M8.24427 15.3531H8.24544C8.24642 15.3531 8.24739 15.3529 8.24837 15.3529H21.84C22.1746 15.3529 22.4688 15.1352 22.5608 14.8196L25.5594 4.52546C25.624 4.30353 25.5787 4.06495 25.4372 3.88074C25.2954 3.69653 25.0739 3.58815 24.8386 3.58815H6.51537L5.97949 1.22276C5.90315 0.886327 5.599 0.646973 5.2476 0.646973H0.749656C0.335588 0.646973 0 0.976132 0 1.38227C0 1.7884 0.335588 2.11756 0.749656 2.11756H4.64631C4.74119 2.53672 7.21076 13.4371 7.35288 14.0642C6.55618 14.4039 5.99725 15.183 5.99725 16.0882C5.99725 17.3045 7.00617 18.2941 8.24622 18.2941H21.84C22.2541 18.2941 22.5896 17.9649 22.5896 17.5588C22.5896 17.1526 22.2541 16.8235 21.84 16.8235H8.24622C7.83293 16.8235 7.49657 16.4935 7.49657 16.0882C7.49657 15.6834 7.83176 15.354 8.24427 15.3531ZM23.8447 5.05874L21.2744 13.8823H8.84751L6.84842 5.05874H23.8447Z" fill="#373737"/>
<path d="M7.49655 20.4999C7.49655 21.7162 8.50546 22.7058 9.74552 22.7058C10.9856 22.7058 11.9945 21.7162 11.9945 20.4999C11.9945 19.2836 10.9856 18.294 9.74552 18.294C8.50546 18.294 7.49655 19.2836 7.49655 20.4999ZM9.74552 19.7646C10.1588 19.7646 10.4952 20.0945 10.4952 20.4999C10.4952 20.9053 10.1588 21.2352 9.74552 21.2352C9.33223 21.2352 8.99586 20.9053 8.99586 20.4999C8.99586 20.0945 9.33223 19.7646 9.74552 19.7646Z" fill="#373737"/>
<path d="M18.0917 20.4999C18.0917 21.7162 19.1006 22.7058 20.3406 22.7058C21.5807 22.7058 22.5896 21.7162 22.5896 20.4999C22.5896 19.2836 21.5807 18.294 20.3406 18.294C19.1006 18.294 18.0917 19.2836 18.0917 20.4999ZM20.3406 19.7646C20.7539 19.7646 21.0903 20.0945 21.0903 20.4999C21.0903 20.9053 20.7539 21.2352 20.3406 21.2352C19.9274 21.2352 19.591 20.9053 19.591 20.4999C19.591 20.0945 19.9274 19.7646 20.3406 19.7646Z" fill="#373737"/>
</svg>
