<svg width="91" height="57" viewBox="0 0 91 57" fill="none" xmlns="http://www.w3.org/2000/svg">
<path fill-rule="evenodd" clip-rule="evenodd" d="M9.75 50C13.0652 50 16.2446 48.683 18.5888 46.3388C20.933 43.9946 22.25 40.8152 22.25 37.5C22.25 34.1848 20.933 31.0054 18.5888 28.6612C16.2446 26.317 13.0652 25 9.75 25C6.43479 25 3.25537 26.317 0.911165 28.6612C-1.43304 31.0054 -2.75 34.1848 -2.75 37.5C-2.75 40.8152 -1.43304 43.9946 0.911165 46.3388C3.25537 48.683 6.43479 50 9.75 50ZM9.75 56.25C14.7228 56.25 19.4919 54.2746 23.0083 50.7583C26.5246 47.2419 28.5 42.4728 28.5 37.5C28.5 32.5272 26.5246 27.7581 23.0083 24.2417C19.4919 20.7254 14.7228 18.75 9.75 18.75C4.77719 18.75 0.00805473 20.7254 -3.50825 24.2417C-7.02456 27.7581 -9 32.5272 -9 37.5C-9 42.4728 -7.02456 47.2419 -3.50825 50.7583C0.00805473 54.2746 4.77719 56.25 9.75 56.25ZM72.25 50C75.5652 50 78.7446 48.683 81.0888 46.3388C83.433 43.9946 84.75 40.8152 84.75 37.5C84.75 34.1848 83.433 31.0054 81.0888 28.6612C78.7446 26.317 75.5652 25 72.25 25C68.9348 25 65.7554 26.317 63.4112 28.6612C61.067 31.0054 59.75 34.1848 59.75 37.5C59.75 40.8152 61.067 43.9946 63.4112 46.3388C65.7554 48.683 68.9348 50 72.25 50ZM72.25 56.25C77.2228 56.25 81.992 54.2746 85.5083 50.7583C89.0246 47.2419 91 42.4728 91 37.5C91 32.5272 89.0246 27.7581 85.5083 24.2417C81.992 20.7254 77.2228 18.75 72.25 18.75C67.2772 18.75 62.508 20.7254 58.9917 24.2417C55.4754 27.7581 53.5 32.5272 53.5 37.5C53.5 42.4728 55.4754 47.2419 58.9917 50.7583C62.508 54.2746 67.2772 56.25 72.25 56.25Z" fill="#FFECEC"/>
<path fill-rule="evenodd" clip-rule="evenodd" d="M16 3.125C16 2.2962 16.3292 1.50134 16.9153 0.915292C17.5014 0.329241 18.2962 0 19.125 0H28.5C29.3288 0 30.1237 0.329241 30.7097 0.915292C31.2958 1.50134 31.625 2.2962 31.625 3.125C31.625 3.9538 31.2958 4.74866 30.7097 5.33471C30.1237 5.92076 29.3288 6.25 28.5 6.25V9.375H54.375L56.7875 2.1375C56.9947 1.51549 57.3922 0.974386 57.9239 0.59078C58.4556 0.207175 59.0944 0.000497792 59.75 0H66C66.8288 0 67.6237 0.329241 68.2097 0.915292C68.7958 1.50134 69.125 2.2962 69.125 3.125C69.125 3.9538 68.7958 4.74866 68.2097 5.33471C67.6237 5.92076 66.8288 6.25 66 6.25H62L60.0563 12.0937L74.9 35.8437C75.3393 36.5466 75.4813 37.3951 75.295 38.2027C75.1086 39.0103 74.6091 39.7107 73.9063 40.15C73.2034 40.5893 72.3549 40.7313 71.5473 40.545C70.7397 40.3586 70.0393 39.8591 69.6 39.1562L56.625 18.3937L43.65 39.1562C43.3691 39.6057 42.9785 39.9763 42.5149 40.2333C42.0513 40.4902 41.53 40.625 41 40.625H9.75001C9.19218 40.625 8.64452 40.4757 8.16388 40.1926C7.68325 39.9094 7.28716 39.5028 7.01674 39.0149C6.74632 38.527 6.61143 37.9756 6.62608 37.418C6.64072 36.8603 6.80436 36.3168 7.10001 35.8437L22.25 11.6062V6.25H19.125C18.2962 6.25 17.5014 5.92076 16.9153 5.33471C16.3292 4.74866 16 3.9538 16 3.125ZM25.375 18.3937L15.3875 34.375H35.3625L25.375 18.3937ZM41 31.6062L50.9875 15.625H31.0125L41 31.6062Z" fill="#FFECEC"/>
</svg>
