<svg width="20" height="19" viewBox="0 0 20 19" fill="none" xmlns="http://www.w3.org/2000/svg">
<path fill-rule="evenodd" clip-rule="evenodd" d="M10.0002 3.48085L9.1039 2.54732C7.00008 0.355994 3.14246 1.11219 1.74992 3.86718C1.09615 5.16298 0.948648 7.03384 2.14243 9.4215C3.29247 11.7205 5.68504 14.4742 10.0002 17.4737C14.3153 14.4742 16.7066 11.7205 17.8579 9.4215C19.0517 7.03257 18.9054 5.16298 18.2504 3.86718C16.8579 1.11219 13.0003 0.354727 10.8965 2.54605L10.0002 3.48085ZM10.0002 19C-9.16666 6.16618 4.09874 -3.85059 9.78017 1.44786C9.85517 1.51752 9.92892 1.58972 10.0002 1.66446C10.0707 1.58979 10.1441 1.51796 10.2202 1.44912C15.9004 -3.85313 29.167 6.16491 10.0002 19Z" fill="#EA899A"/>
</svg>
