<svg width="309" height="71" viewBox="0 0 309 71" fill="none" xmlns="http://www.w3.org/2000/svg">
<path d="M132.288 27.7782H126.765L118.449 16.2225V27.7782H113.585V4.97882H118.449V16.0198L126.671 4.97882H131.849L123.486 15.9263L132.288 27.7782Z" fill="white"/>
<path d="M149.539 27.7782L147.876 22.3512H139.513L137.85 27.7782H132.609L140.706 4.88525H146.652L154.78 27.7782H149.539ZM146.715 18.2966C145.177 13.3791 144.309 10.5981 144.11 9.95351C143.922 9.30893 143.786 8.79951 143.703 8.42523C143.357 9.75598 142.369 13.0464 140.737 18.2966H146.715Z" fill="white"/>
<path d="M176.158 27.7782H171.31V9.00224H165.692L165.441 11.0919C164.793 16.4045 164.218 20.1368 163.715 22.2889C163.224 24.4305 162.502 25.938 161.55 26.8113C160.598 27.6846 159.312 28.1109 157.69 28.0901C156.812 28.0901 156.038 27.9757 155.368 27.747V23.7859C155.975 23.9939 156.545 24.0978 157.078 24.0978C157.633 24.0978 158.072 23.8483 158.396 23.3493C158.721 22.8399 159.024 21.9042 159.306 20.5423C159.599 19.1699 159.981 16.9295 160.452 13.821C160.933 10.7021 161.341 7.75467 161.676 4.97882H176.158V27.7782Z" fill="white"/>
<path d="M182.269 4.97882H186.647V15.9886L186.584 18.936L186.427 22.2889H186.521L197.112 4.97882H202.934V27.7782H198.603V16.8307C198.603 15.3648 198.697 13.192 198.885 10.3122H198.76L188.122 27.7782H182.269V4.97882Z" fill="white"/>
<path d="M227.842 27.7782H222.993V17.938H213.909V27.7782H209.045V4.97882H213.909V13.9145H222.993V4.97882H227.842V27.7782Z" fill="white"/>
<path d="M233.969 4.97882H238.346V15.9886L238.284 18.936L238.127 22.2889H238.221L248.812 4.97882H254.633V27.7782H250.302V16.8307C250.302 15.3648 250.397 13.192 250.585 10.3122H250.459L239.821 27.7782H233.969V4.97882Z" fill="white"/>
<path d="M279.541 27.7782H274.693V17.938H265.608V27.7782H260.744V4.97882H265.608V13.9145H274.693V4.97882H279.541V27.7782Z" fill="white"/>
<path d="M301.359 20.6514C301.359 23.0218 300.564 24.8048 298.974 26.0004C297.394 27.1856 295.051 27.7782 291.944 27.7782H285.668V4.97882H290.532V13.7274H292.101C295.041 13.7274 297.316 14.3356 298.927 15.552C300.548 16.758 301.359 18.4578 301.359 20.6514ZM290.532 23.8171H291.803C293.404 23.8171 294.575 23.5572 295.318 23.0374C296.061 22.5072 296.432 21.7119 296.432 20.6514C296.432 19.591 296.071 18.8321 295.349 18.3746C294.638 17.9172 293.383 17.6884 291.584 17.6884H290.532V23.8171ZM309 27.7782H304.152V4.97882H309V27.7782Z" fill="white"/>
<path d="M125.732 69.6167H123.056V64.58H113.794V69.6167H111.142V62.2355H112.242C113.203 60.7842 113.965 59.0323 114.527 56.9798C115.097 54.9187 115.435 52.7031 115.541 50.3328H123.752V62.2355H125.732V69.6167ZM120.93 62.2355V52.6515H118.021C117.867 54.4206 117.541 56.1639 117.044 57.8815C116.555 59.599 115.956 61.0504 115.248 62.2355H120.93Z" fill="white"/>
<path d="M134.389 64.8376C132.287 64.8376 130.642 64.1935 129.452 62.9053C128.271 61.6086 127.68 59.8266 127.68 57.5594C127.68 55.2322 128.23 53.403 129.33 52.0719C130.43 50.7407 131.941 50.0752 133.863 50.0752C135.647 50.0752 137.057 50.6463 138.091 51.7885C139.126 52.9306 139.643 54.5022 139.643 56.5032V58.1391H130.638C130.678 59.5218 131.033 60.5866 131.701 61.3338C132.369 62.0723 133.309 62.4416 134.523 62.4416C135.322 62.4416 136.063 62.3643 136.747 62.2097C137.439 62.0466 138.181 61.7803 138.971 61.4111V63.8715C138.27 64.2236 137.562 64.4726 136.845 64.6186C136.128 64.7646 135.309 64.8376 134.389 64.8376ZM133.863 52.3681C132.951 52.3681 132.218 52.673 131.664 53.2827C131.118 53.8925 130.792 54.7813 130.686 55.9492H136.82C136.804 54.7727 136.535 53.8839 136.014 53.2827C135.493 52.673 134.776 52.3681 133.863 52.3681Z" fill="white"/>
<path d="M154.263 64.58H151.367V52.7031H147.64C147.412 55.7603 147.103 58.1477 146.712 59.8653C146.329 61.5828 145.824 62.8366 145.196 63.6267C144.577 64.4168 143.771 64.8118 142.777 64.8118C142.15 64.8118 141.624 64.7174 141.201 64.5284V62.1582C141.502 62.2784 141.804 62.3386 142.105 62.3386C142.936 62.3386 143.588 61.3552 144.06 59.3886C144.541 57.4135 144.915 54.3949 145.184 50.3328H154.263V64.58Z" fill="white"/>
<path d="M167.087 64.58L166.512 62.5962H166.415C165.763 63.4636 165.107 64.0561 164.447 64.3739C163.788 64.683 162.94 64.8376 161.906 64.8376C160.578 64.8376 159.539 64.4597 158.79 63.704C158.049 62.9483 157.678 61.8791 157.678 60.4965C157.678 59.028 158.195 57.9201 159.23 57.173C160.264 56.4259 161.841 56.0179 163.959 55.9492L166.292 55.8719V55.1119C166.292 54.2016 166.089 53.5232 165.682 53.0766C165.282 52.6215 164.659 52.3939 163.812 52.3939C163.12 52.3939 162.456 52.5012 161.82 52.7159C161.185 52.9306 160.574 53.184 159.987 53.476L159.059 51.3118C159.792 50.9082 160.594 50.6033 161.466 50.3972C162.338 50.1825 163.16 50.0752 163.934 50.0752C165.653 50.0752 166.948 50.4702 167.82 51.2603C168.7 52.0504 169.14 53.2913 169.14 54.9831V64.58H167.087ZM162.81 62.5189C163.853 62.5189 164.688 62.214 165.315 61.6043C165.95 60.986 166.268 60.1229 166.268 59.0151V57.7784L164.533 57.8557C163.181 57.9073 162.195 58.1477 161.576 58.5771C160.965 58.9979 160.659 59.6463 160.659 60.5222C160.659 61.1577 160.839 61.6515 161.197 62.0036C161.556 62.3471 162.093 62.5189 162.81 62.5189Z" fill="white"/>
<path d="M191.445 57.4306C191.445 59.7665 190.904 61.5871 189.82 62.8925C188.745 64.1892 187.242 64.8376 185.311 64.8376C183.536 64.8376 182.122 64.288 181.071 63.1887C180.029 62.0809 179.422 60.4965 179.251 58.4354H176.269V64.58H173.398V50.3328H176.269V56.0523H179.275C179.479 54.163 180.106 52.6945 181.157 51.6468C182.216 50.5991 183.617 50.0752 185.36 50.0752C187.234 50.0752 188.716 50.7407 189.808 52.0719C190.9 53.3944 191.445 55.1806 191.445 57.4306ZM182.183 57.4306C182.183 59.0537 182.428 60.2818 182.916 61.1148C183.413 61.9478 184.22 62.3643 185.336 62.3643C186.444 62.3643 187.246 61.9478 187.743 61.1148C188.24 60.2818 188.488 59.0537 188.488 57.4306C188.488 55.8247 188.24 54.6095 187.743 53.7851C187.246 52.9607 186.444 52.5485 185.336 52.5485C184.22 52.5485 183.413 52.9607 182.916 53.7851C182.428 54.6095 182.183 55.8247 182.183 57.4306Z" fill="white"/>
<path d="M205.186 50.3328V52.7031H200.787V64.58H197.903V52.7031H193.504V50.3328H205.186Z" fill="white"/>
<path d="M0 2.41362e-07H6.30851V70.8379H0V2.41362e-07Z" fill="white"/>
<path d="M11.2151 2.41362e-07H17.5236V70.8379H11.2151V2.41362e-07Z" fill="white"/>
<path d="M22.4302 2.41362e-07H28.7388V70.8379H22.4302V2.41362e-07Z" fill="white"/>
<path d="M28.7388 15.5843C28.7388 15.5843 40.4582 17.1932 47.3138 20.1888C54.0393 23.1276 57.7962 25.3354 63.0851 30.4603C69.4424 36.6206 71.8673 41.4117 75.3516 49.5866C78.7003 57.4433 80.6087 70.8379 80.6087 70.8379H74.3002C74.3002 70.8379 72.2469 58.7552 69.0431 51.7117C66.1098 45.2628 64.0668 41.6275 59.2299 36.4815C55.6084 32.6287 53.2856 30.6097 48.7157 27.981C41.6735 23.9302 28.7388 22.314 28.7388 22.314V15.5843Z" fill="white"/>
<path d="M80.5827 2.41362e-07C80.5827 2.41362e-07 79.3538 11.8878 76.6029 18.9054C73.9042 25.7898 71.8367 29.653 66.9315 35.1538C61.0353 41.7659 56.3716 44.3635 48.3941 48.1357C40.7271 51.7611 27.5383 54.1029 27.5383 54.1029L27.3433 47.7305C27.3433 47.7305 39.23 45.2829 46.0973 41.829C52.3848 38.6667 55.9172 36.4907 60.8571 31.4457C64.5558 27.6684 66.4809 25.2597 68.9395 20.5623C72.7282 13.3237 73.9269 0.208004 73.9269 0.208004L80.5827 2.41362e-07Z" fill="white"/>
<path d="M23.8321 25.5017C23.8321 25.5017 34.1262 26.8217 40.1481 29.2797C46.0556 31.691 49.3556 33.5025 54.0012 37.7076C59.5854 42.7622 61.7154 46.6933 64.7759 53.4009C67.7173 59.8475 69.3936 70.8379 69.3936 70.8379H63.8523C63.8523 70.8379 62.0487 60.9239 59.2346 55.1446C56.6581 49.8532 54.8635 46.8704 50.6149 42.6481C47.4338 39.4868 45.3935 37.8301 41.3794 35.6733C35.1937 32.3495 23.8321 31.0234 23.8321 31.0234V25.5017Z" fill="white"/>
<path d="M68.6926 2.41362e-07C68.6926 2.41362e-07 67.3864 9.76305 64.9543 15.4743C62.5682 21.077 60.7757 24.2068 56.6148 28.6128C51.6133 33.9089 47.7233 35.929 41.0862 38.8316C34.7073 41.6213 23.8321 43.2111 23.8321 43.2111V37.9557C23.8321 37.9557 33.6421 36.2452 39.3608 33.5762C44.5966 31.1326 47.5482 29.4307 51.7262 25.4011C54.8543 22.3842 56.4935 20.4492 58.6278 16.6421C61.9166 10.7755 63.2289 0 63.2289 0L68.6926 2.41362e-07Z" fill="white"/>
<path d="M25.935 38.9609C25.935 38.9609 33.0616 39.889 37.2306 41.6173C41.3204 43.3127 43.605 44.5865 46.8212 47.5432C50.6872 51.0972 52.1618 53.8613 54.2806 58.5775C56.317 63.1103 57.4775 70.8379 57.4775 70.8379H52.2204C52.2204 70.8379 51.3649 63.9216 49.4166 59.8581C47.6329 56.1376 46.4 54.3263 43.4586 51.3575C41.2563 49.1347 40.0096 48.6238 37.2306 47.1072C32.9482 44.7702 25.935 44.2737 25.935 44.2737V38.9609Z" fill="white"/>
<path d="M57.4775 2.41362e-07C57.4775 2.41362e-07 56.5591 7.20225 54.849 11.4154C53.1713 15.5486 51.9109 17.8575 48.9853 21.1078C45.4686 25.0148 42.7335 26.505 38.0667 28.6463C33.5816 30.7042 25.935 31.8771 25.935 31.8771L25.935 26.5642C25.935 26.5642 32.7787 25.6996 36.7996 23.7307C40.4811 21.928 42.2733 20.6821 45.211 17.7095C47.4104 15.4839 47.916 14.2239 49.4166 11.4154C51.7291 7.08761 52.2204 9.13056e-09 52.2204 9.13056e-09L57.4775 2.41362e-07Z" fill="white"/>
</svg>
