<svg width="22" height="22" viewBox="0 0 22 22" fill="none" xmlns="http://www.w3.org/2000/svg">
<path d="M12.8332 9.86484C12.5566 9.5883 12.2109 9.3969 11.8366 9.30752L19.6161 1.528C19.8222 1.32194 20.1017 1.20618 20.3931 1.20618C20.6845 1.20618 20.964 1.32194 21.17 1.528C21.3761 1.73405 21.4918 2.01353 21.4918 2.30494C21.4918 2.59635 21.3761 2.87582 21.17 3.08188L13.6101 10.6418L12.8332 9.86484ZM12.1261 10.5719L12.903 11.3489L12.1261 12.1258C11.92 12.3319 11.6405 12.4476 11.3491 12.4476C11.0577 12.4476 10.7782 12.3319 10.5722 12.1258L9.79524 11.3489L10.5722 10.5719C10.7782 10.3659 11.0577 10.2501 11.3491 10.2501C11.6405 10.2501 11.92 10.3659 12.1261 10.5719ZM1.52823 19.6159L9.08813 12.056L9.86507 12.8329C10.1416 13.1095 10.4874 13.3009 10.8616 13.3903L3.08211 21.1698C2.87605 21.3758 2.59658 21.4916 2.30517 21.4916C2.01376 21.4916 1.73429 21.3758 1.52823 21.1698C1.32217 20.9637 1.20641 20.6842 1.20641 20.3928C1.20641 20.1014 1.32217 19.822 1.52823 19.6159ZM11.8366 13.3903C12.2109 13.3009 12.5566 13.1095 12.8332 12.8329L13.6101 12.056L21.17 19.6159C21.3761 19.822 21.4918 20.1014 21.4918 20.3928C21.4918 20.6842 21.3761 20.9637 21.17 21.1698C20.964 21.3758 20.6845 21.4916 20.3931 21.4916C20.1017 21.4916 19.8222 21.3758 19.6161 21.1698L11.8366 13.3903ZM9.86507 9.86484L9.08813 10.6418L1.52823 3.08188C1.32217 2.87582 1.20641 2.59635 1.20641 2.30494C1.20641 2.01353 1.32217 1.73405 1.52823 1.528C1.73429 1.32194 2.01376 1.20618 2.30517 1.20618C2.59658 1.20618 2.87605 1.32194 3.08211 1.528L10.8616 9.30752C10.4874 9.3969 10.1416 9.5883 9.86507 9.86484Z" fill="#F87D73" stroke="#EA899A"/>
</svg>
